<svg xmlns="http://www.w3.org/2000/svg" viewBox="0 0 125.6 64"><path fill="#e91c32" d="M27.6 25.3l4.8 14.6-9.4.1c.1-1.2 1.8-5.9 2.2-7.3l2.2-7.1c.2-.3.2-.2.2-.3zM82.1 27h6.5v10.4h-6.5c-.8 3.7-3.4 7.1-6.1 9.2-9.8 7.8-24.8.4-24.8-14.4 0-9.2 6.1-16.1 13.4-17.4 7.7-1.3 15.6 4.3 17.5 12.2zM0 63.4v.1h14.7l3-8.8c.3-.6 0-.3.4-.5h19.3c.3 1.1 2.9 8.6 3.3 9.1l15.3.3-.8-2.4c4.2 1.4 7.4 2.9 13 2.8 6.4-.1 12.4-3.3 16.5-6.9.7-.6 1.2-1.1 1.9-1.9.6-.7 1.2-1.4 1.9-2.1v10.8h13.7V52.4c0-1.8-.2-10.6.1-11.6l21.9-.1V26.6h-21.8l-.1-.2c-.1-.5-.1-5-.1-5.5 0-1.2-.3-5.1.1-5.9l23.3-.1V.2H88.5l.1 11c-2.4-2.5-1.9-2.5-5-5-6.2-5-14.9-7.1-22.7-5.1-5.4 1.4-10 4.2-13.9 8.4-.4.5-.7.9-1.2 1.4-1.7 1.9-4.1 6.2-5.1 8.9l-.4 1c-.7-1.8-4.9-12.7-6-15.6-.5-1.4-1.4-4.1-2-5.2h-9.7L0 63.4z"/></svg>