<?xml version="1.0" encoding="UTF-8"?>
<svg width="93px" height="55px" viewBox="0 0 93 55" version="1.1" xmlns="http://www.w3.org/2000/svg" xmlns:xlink="http://www.w3.org/1999/xlink">
    <title>WooCommerce_logo</title>
    <g id="Homepage" stroke="none" stroke-width="1" fill="none" fill-rule="evenodd">
        <g id="3_SKILLS" transform="translate(-686.000000, -503.000000)" fill="#FFFFFF" fill-rule="nonzero">
            <g id="WooCommerce_logo" transform="translate(686.000000, 503.000000)">
                <path d="M84.3310708,0 C89.1216323,0 93,3.85288019 93,8.61276626 L93,37.3215059 C93,42.0810311 89.1219956,45.9342722 84.3310708,45.9342722 L57.1843135,45.9342722 L60.9104672,55 L44.5233103,45.9342722 L8.66947953,45.9342722 C3.87891804,45.9342722 0.000273176258,42.081392 0.000273176258,37.3215059 L0.000273176258,8.61276626 C-0.0374704281,3.89077737 3.84077373,0 8.63133522,0 L84.3310708,0 Z M40.3024842,5.36666201 L40.0870568,5.37835772 C38.9926208,5.45309723 38.1623739,5.97609432 37.59628,7.02208851 C35.2563286,11.2436863 33.5957986,18.0797311 32.6145813,27.5686336 C31.1804889,23.9824294 29.9728341,19.7611906 29.0293684,14.7925567 C28.614245,12.588459 27.5953123,11.5424648 25.9347823,11.6545382 C24.8025946,11.7292418 23.859129,12.4763857 23.1043492,13.8959697 L23.1043492,13.8959697 L14.8395961,29.4738809 C13.4808258,24.0568817 12.1977038,17.4448401 11.0278006,9.63703807 C10.7636114,7.69445693 9.66917531,6.79788433 7.74449238,6.9473131 C6.68780798,7.02201671 5.89527655,7.39560658 5.36693435,8.10538065 L5.36693435,8.10538065 C4.83903821,8.77774908 4.61260428,9.63696628 4.76356023,10.6082568 C6.99022034,24.6170691 9.06590999,34.0682788 10.9905929,38.962245 C11.7453727,40.755383 12.6133712,41.614611 13.6323402,41.5398966 C15.2174756,41.427895 17.1044068,39.2610953 19.3309944,35.0398565 C20.5008976,32.6490537 22.3122529,29.0624905 24.7652781,24.2808849 C26.8029985,31.3416507 29.5957524,36.6462176 33.105462,40.1951598 C34.0866793,41.2038201 35.105612,41.6520884 36.0868293,41.577374 C36.9547916,41.5026704 37.6341042,41.054377 38.0869793,40.2325295 C38.4643765,39.5227554 38.6153324,38.7008721 38.5398544,37.7669513 C38.3134169,34.3674163 38.6530732,29.6231445 39.5965388,23.5337769 C40.5776474,17.258099 41.7853022,12.7377227 43.25711,10.0479977 C43.5590401,9.48763085 43.6722552,8.9272999 43.634518,8.25485968 C43.5590509,7.39564248 43.1816429,6.6858684 42.4646149,6.12550155 C41.7475868,5.56514547 40.9550554,5.30364334 40.0870568,5.37835772 Z M78.3935889,9.41264364 C74.7706606,9.41264364 71.8271175,11.2805212 69.5250266,15.0163121 C67.562592,18.1916644 66.5813747,21.7033804 66.5813747,25.5509217 C66.5813747,28.4274236 67.185184,30.8928942 68.3928388,32.9476923 C69.7514279,35.3011971 71.7516142,36.7209248 74.4309318,37.2812916 C75.1479599,37.4307204 75.8272725,37.5054348 76.4688335,37.5054348 C80.1294047,37.5054348 83.0730203,35.6375573 85.3373959,31.9017663 C87.2998305,28.6890442 88.2810478,25.1773641 88.2810478,21.3298229 C88.3187849,18.4159512 87.6772385,15.9878504 86.4695836,13.9703861 C85.1109946,11.6168813 83.1108083,10.1971536 80.4314907,9.63678679 C79.7144626,9.48735802 79.0351499,9.41264364 78.3935889,9.41264364 Z M54.7688703,9.41264364 C51.145942,9.41264364 48.2023988,11.2805212 45.9003079,15.0163121 C43.9378733,18.1916644 42.956656,21.7033804 42.956656,25.5509217 C42.956656,28.4274236 43.5604653,30.8928942 44.7681201,32.9476923 C46.1267092,35.3011971 48.1268955,36.7209248 50.8062131,37.2812916 C51.5232412,37.4307204 52.2025538,37.5054348 52.8441148,37.5054348 C56.504686,37.5054348 59.4483016,35.6375573 61.7126772,31.9017663 C63.6751118,28.6890442 64.6563291,25.1773641 64.6563291,21.3298229 C64.6563291,18.4159512 64.0525198,15.9878504 62.8448649,13.9703861 C61.4862759,11.6168813 59.4483379,10.1971536 56.806772,9.63678679 C56.0897439,9.48735802 55.4104312,9.41264364 54.7688703,9.41264364 Z M79.0728871,15.7262621 C79.9786373,15.9130498 80.7334171,16.6975527 81.2994747,18.1544706 C81.7523498,19.3125381 81.9787873,20.4706057 81.9787873,21.5539696 C81.9787873,22.5252602 81.9033094,23.459181 81.7146126,24.3183982 C81.1861979,26.7839046 80.2427323,28.6142329 78.8463915,29.8473272 C77.7519554,30.8186177 76.7330227,31.2295415 75.7895208,31.0427645 C74.8837706,30.8559767 74.1289909,30.0714739 73.5629333,28.614556 C73.1100581,27.4564885 72.8836206,26.2984209 72.8836206,25.215057 C72.8836206,24.2811361 72.9590986,23.3471794 73.1477953,22.4879981 C73.487448,20.9563407 74.1290126,19.462053 75.1479453,18.0423972 C76.3933156,16.2118894 77.7141893,15.4647456 79.0728871,15.7262621 Z M55.410453,15.7262621 C56.3162032,15.9130498 57.070983,16.6975527 57.6370406,18.1544706 C58.0899157,19.3125381 58.3163532,20.4706057 58.3163532,21.5539696 C58.3540904,22.5252602 58.2408753,23.459181 58.0521785,24.3183982 C57.5237638,26.7839046 56.5802982,28.6142329 55.1839574,29.8473272 C54.0895213,30.8186177 53.0705886,31.2295415 52.1270867,31.0427645 C51.2213365,30.8559767 50.4665568,30.0714739 49.9004992,28.614556 C49.447624,27.4564885 49.2211865,26.2984209 49.2211865,25.215057 C49.2211865,24.2811361 49.2966645,23.3471794 49.4853612,22.4879981 C49.8250103,20.9563407 50.4665785,19.462053 51.4855112,18.0423972 C52.7308815,16.2118894 54.0517552,15.4647456 55.410453,15.7262621 Z" id="Combined-Shape"></path>
            </g>
        </g>
    </g>
</svg>