<?xml version="1.0" encoding="UTF-8"?>
<svg width="58px" height="61px" viewBox="0 0 58 61" version="1.1" xmlns="http://www.w3.org/2000/svg" xmlns:xlink="http://www.w3.org/1999/xlink">
    <title>Laravel</title>
    <g id="Homepage" stroke="none" stroke-width="1" fill="none" fill-rule="evenodd">
        <g id="3_SKILLS" transform="translate(-691.000000, -370.000000)" fill="#FFFFFF">
            <g id="Laravel" transform="translate(691.000000, 370.000000)">
                <path d="M57.9672937,13.7997979 C57.9888,13.8811211 58,13.9649702 58,14.049209 L58,27.1426947 C58,27.4847666 57.8208817,27.800702 57.5304306,27.9708828 L46.773553,34.2980484 L46.773553,46.839011 C46.773553,47.1803104 46.5960044,47.4953559 46.3063197,47.667199 L23.8522576,60.87286 C23.800862,60.9026939 23.744794,60.9217876 23.688726,60.9420746 C23.6677005,60.9492347 23.6478431,60.9623616 23.6256495,60.9683284 C23.4686871,61.0105572 23.3036978,61.0105572 23.1467354,60.9683284 C23.1210376,60.9611683 23.0976759,60.946848 23.0731462,60.9373012 C23.0217505,60.9182075 22.9680187,60.9015005 22.9189592,60.87286 L0.46956942,47.667199 C0.179295174,47.4968368 0,47.1810163 0,46.839011 L0,7.55855382 C0,7.4726323 0.0116808314,7.38909748 0.0327063278,7.30794937 C0.0397148266,7.28050222 0.0560679905,7.25544178 0.0654126556,7.22799462 C0.0829339026,7.17787373 0.0992870665,7.12655949 0.124984895,7.08001866 C0.142506143,7.04899144 0.168203971,7.023931 0.189229468,6.99529049 C0.21609538,6.95710315 0.240625126,6.91772245 0.272163371,6.88430852 C0.299029283,6.85686137 0.334071777,6.83657434 0.364441938,6.81270725 C0.398316349,6.78406674 0.428686511,6.75303953 0.467233254,6.73036579 L0.468401337,6.73036579 L11.6936803,0.127535271 C11.9829337,-0.0425117568 12.3388933,-0.0425117568 12.6281468,0.127535271 L23.8534257,6.73036579 L23.8557619,6.73036579 C23.8931405,6.75423288 23.9246788,6.78406674 23.9585532,6.8115139 C23.9889233,6.83538099 24.0227978,6.85686137 24.0496637,6.88311517 C24.08237,6.91772245 24.1057317,6.95710315 24.1337657,6.99529049 C24.1536231,7.023931 24.180489,7.04899144 24.1968421,7.08001866 C24.2237081,7.12775284 24.2388931,7.17787373 24.2575825,7.22799462 C24.2669271,7.25544178 24.2832803,7.28050222 24.2902888,7.30914273 C24.3117951,7.39046593 24.3227906,7.47431505 24.3229951,7.55855382 L24.3229951,32.0927292 L33.6770049,26.5901716 L33.6770049,14.0480157 C33.6770049,13.9644808 33.6886857,13.8797527 33.7097112,13.7997979 C33.7178878,13.7711574 33.7330729,13.746097 33.7424175,13.7186498 C33.7611069,13.6685289 33.77746,13.6172147 33.8031579,13.5706739 C33.8206791,13.5396466 33.8463769,13.5145862 33.8662343,13.4859457 C33.8942683,13.4477583 33.91763,13.4083776 33.9503363,13.3749637 C33.9772022,13.3475166 34.0110767,13.3272295 34.0414468,13.3033624 C34.0764893,13.2747219 34.1068595,13.2436947 34.1442381,13.221021 L34.1454062,13.221021 L45.3718532,6.61819047 C45.6610426,6.44789843 46.0171304,6.44789843 46.3063197,6.61819047 L57.5315987,13.221021 C57.5713135,13.2448881 57.6016837,13.2747219 57.6367261,13.3021691 C57.6659282,13.3260362 57.6998026,13.3475166 57.7266685,13.3737704 C57.7593749,13.4083776 57.7827365,13.4477583 57.8107705,13.4859457 C57.831796,13.5145862 57.8574939,13.5396466 57.873847,13.5706739 C57.9007129,13.6172147 57.915898,13.6685289 57.9345873,13.7186498 C57.9451001,13.746097 57.9602852,13.7711574 57.9672937,13.7997979 Z M56.1287308,26.5901716 L56.1287308,15.702005 L52.2004672,18.0123394 L46.773553,21.2045627 L46.773553,32.0927292 L56.1298989,26.5901716 L56.1287308,26.5901716 Z M44.9034519,46.2864878 L44.9034519,35.3911611 L39.565312,38.5058164 L24.321827,47.3939208 L24.321827,58.391876 L44.9034519,46.2864878 Z M1.87126918,9.21134982 L1.87126918,46.2864878 L22.4505579,58.3906826 L22.4505579,47.3951142 L11.6995207,41.1789305 L11.6960164,41.1765438 L11.6913441,41.1741571 C11.6551335,41.1526767 11.6247634,41.1216495 11.590889,41.0953957 C11.5616869,41.0715286 11.5278125,41.0524349 11.5021146,41.0261811 L11.4997785,41.0226011 C11.4694083,40.9927672 11.4483828,40.9557732 11.422685,40.9223593 C11.3993233,40.8901387 11.3712893,40.8626916 11.3526,40.8292776 L11.3514319,40.8256976 C11.3304064,40.7898969 11.3175575,40.7469362 11.3023724,40.7063621 C11.2871873,40.6705615 11.2673299,40.6371476 11.2579853,40.5989602 L11.2579853,40.5977669 C11.2463044,40.5524194 11.2439683,40.5046852 11.2392959,40.4581444 C11.2346236,40.4223437 11.2252789,40.3865431 11.2252789,40.3507425 L11.2252789,40.3483558 L11.2252789,14.7139075 L5.79953277,11.5204908 L1.87126918,9.21254318 L1.87126918,9.21134982 Z M12.1620816,2.05838287 L2.80923994,7.55855382 L12.1597454,13.0587248 L21.511419,7.55736047 L12.1597454,2.05838287 L12.1620816,2.05838287 Z M17.0259798,36.3840321 L22.4517259,33.1930021 L22.4517259,9.21134982 L18.5234624,11.5216842 L13.0965481,14.7139075 L13.0965481,38.6955598 L17.0259798,36.3840321 Z M45.8390865,8.54903807 L36.4874129,14.049209 L45.8390865,19.54938 L55.189592,14.0480157 L45.8390865,8.54903807 Z M44.9034519,21.2045627 L39.4765376,18.0123394 L35.5482741,15.702005 L35.5482741,26.5901716 L40.9740202,29.7812016 L44.9034519,32.0927292 L44.9034519,21.2045627 Z M23.3850244,45.7411248 L37.1018246,37.7408762 L43.9584726,33.7431385 L34.6138075,28.2465477 L23.8545938,34.5749066 L14.0485359,40.342389 L23.3850244,45.7411248 Z" id="Shape"></path>
            </g>
        </g>
    </g>
</svg>