<?xml version="1.0" encoding="UTF-8"?>
<svg width="36px" height="80px" viewBox="0 0 36 80" version="1.1" xmlns="http://www.w3.org/2000/svg" xmlns:xlink="http://www.w3.org/1999/xlink">
    <title>Gulp.js_Logo</title>
    <g id="Homepage" stroke="none" stroke-width="1" fill="none" fill-rule="evenodd">
        <g id="3_SKILLS" transform="translate(-1080.000000, -362.000000)" fill="#FFFFFF" fill-rule="nonzero">
            <g id="Gulp.js_Logo" transform="translate(1080.000000, 362.000000)">
                <path d="M17.844,63.1056208 C13.1735172,63.1056208 9.56462069,62.4006228 7.82917241,61.9804515 C6.64241379,61.69313 5.68944828,61.3958292 4.96551724,61.0904201 L7.28006897,65.064064 L8.18544828,77.4798038 C8.18544828,78.8717122 12.5857241,80 18.0136552,80 C23.4415862,80 27.8418621,78.8717122 27.8418621,77.4798038 L28.5587586,64.9289272 L30.7487586,61.0787776 C30.0217241,61.3883447 29.0602759,61.6895957 27.8586207,61.9804515 C26.1231724,62.4006228 22.5142759,63.1056208 17.844,63.1056208 Z M30.8238621,22.7043099 C27.396,23.1853966 22.8465517,23.4504726 18.0136552,23.4504726 C13.1807586,23.4504726 8.63131034,23.1853966 5.20344828,22.7043099 C3.50544828,22.4660534 2.16206897,22.184969 1.21055172,21.8693727 C0.983586207,21.793904 0.598965517,21.6652123 0.228827586,21.4602203 L2.35262069,41.1014096 C2.45131034,40.763152 2.56117241,40.4253101 2.68303448,40.0887157 C2.93234483,39.3988946 3.22075862,38.7244583 3.54806897,38.0656148 C3.87558621,37.4069791 4.23206897,36.7843106 4.61751724,36.1978171 C5.00275862,35.6115316 5.41303448,35.0716083 5.84772414,34.5782553 C6.28262069,34.0851102 6.72868966,33.6609887 7.18675862,33.3054751 C7.64462069,32.9503774 8.10682759,32.6726194 8.57337931,32.472617 C9.04013793,32.2726146 9.50234483,32.1724056 9.9602069,32.1724056 C10.4875862,32.1724056 10.9977931,32.3173137 11.4906207,32.60713 C11.9832414,32.8967385 12.4437931,33.3659748 12.8728966,34.0144232 C12.9713793,34.1593314 13.0338621,34.3059028 13.0597241,34.4541374 C13.086,34.6025799 13.0988276,34.7422905 13.0988276,34.8732692 C13.0988276,35.1836679 13.0249655,35.4287851 12.8772414,35.6079972 C12.7295172,35.7874173 12.554069,35.8770233 12.3513103,35.8770233 C12.1655172,35.8770233 11.9931724,35.7786853 11.8338621,35.5822173 C11.6743448,35.3855414 11.4962069,35.104457 11.2990345,34.7387562 C11.1134483,34.4075672 10.9092414,34.1680633 10.6862069,34.0196208 C10.4629655,33.8713862 10.2211034,33.797165 9.9602069,33.797165 C9.55448276,33.797165 9.12124138,33.9661898 8.66048276,34.3042396 C8.19951724,34.6420814 7.74310345,35.0888643 7.29124138,35.6441723 C6.83896552,36.1996883 6.40572414,36.8342072 5.99131034,37.5483529 C5.57689655,38.2622907 5.21006897,38.9934844 4.89124138,39.741934 C4.57241379,40.4907995 4.31917241,41.2290619 4.13068966,41.9567212 C3.9422069,42.6843806 3.84806897,43.3380266 3.84806897,43.9174513 C3.84806897,44.1108008 3.86131034,44.3093479 3.88717241,44.5124688 C3.91344828,44.7162134 3.96248276,44.9006231 4.03510345,45.0663215 C4.10731034,45.2320199 4.206,45.3679883 4.33055172,45.4746424 C4.45531034,45.5819202 4.61317241,45.6351432 4.80434483,45.6351432 C5.01889655,45.6351432 5.2622069,45.5627931 5.53489655,45.4178849 C5.80717241,45.2733926 6.0897931,45.0833695 6.38234483,44.8490632 C6.67510345,44.6143411 6.96931034,44.3488494 7.26496552,44.0519644 C7.56082759,43.7554952 7.836,43.4554916 8.09089655,43.1517458 C8.3457931,42.8484158 8.57193103,42.5567283 8.76889655,42.277515 C8.96606897,41.9980938 9.1137931,41.7548477 9.21248276,41.5477767 L10.0210345,39.1159391 C10.1195172,38.8539817 10.2484138,38.6677009 10.407931,38.5573046 C10.5672414,38.4469083 10.7311034,38.3916062 10.8993103,38.3916062 C10.9802069,38.3916062 11.0613103,38.4055356 11.1426207,38.4329788 C11.223931,38.4606298 11.2961379,38.5038736 11.360069,38.5622943 C11.4237931,38.6211307 11.4744828,38.6968073 11.5121379,38.7901556 C11.5497931,38.8830881 11.5686207,38.9918212 11.5686207,39.1159391 C11.5686207,39.447128 11.5396552,39.7573188 11.4817241,40.0473431 C11.4237931,40.3373673 11.349931,40.619907 11.259931,40.8960018 C11.1701379,41.1716807 11.07,41.4494387 10.959931,41.7288599 C10.8498621,42.0082811 10.7424828,42.2997606 10.6384138,42.6035064 C10.6152414,42.6380183 10.5732414,42.7463356 10.5122069,42.929082 C10.4513793,43.1122443 10.3777241,43.3417688 10.2906207,43.6174478 C10.2037241,43.8935425 10.1093793,44.2020701 10.008,44.5436542 C9.90641379,44.8852383 9.80234483,45.2334753 9.69517241,45.5887809 C9.5877931,45.9440866 9.48496552,46.2925315 9.38648276,46.6341156 C9.2877931,46.9754918 9.19924138,47.2842272 9.12124138,47.560322 C9.04303448,47.8360009 8.97786207,48.0669808 8.92551724,48.2534695 C8.87337931,48.4397503 8.84151724,48.5499387 8.82993103,48.5848664 C8.80096552,48.6948469 8.75441379,48.8175095 8.69089655,48.9518146 C8.62717241,49.0863276 8.55186207,49.2141878 8.46475862,49.3347713 C8.37786207,49.4553549 8.28227586,49.5557719 8.1777931,49.6347749 C8.07351724,49.7139858 7.96634483,49.7539031 7.85606897,49.7539031 C7.67068966,49.7539031 7.5357931,49.6917402 7.452,49.5678302 C7.3677931,49.4435044 7.326,49.215851 7.326,48.8848699 L7.326,48.7399618 C7.326,48.6915205 7.32868966,48.6395448 7.33448276,48.5848664 C7.34006897,48.4742622 7.38372414,48.2671911 7.46503448,47.9634453 C7.54613793,47.6601153 7.64317241,47.3170759 7.75634483,46.9341191 C7.86931034,46.5511624 7.99117241,46.1544841 8.12151724,45.7438763 C8.25165517,45.3334765 8.36917241,44.9663203 8.47365517,44.6419922 C8.166,44.9871106 7.83310345,45.33015 7.47372414,45.6717341 C7.11413793,46.0131103 6.74606897,46.3201825 6.36951724,46.5925351 C5.99255172,46.8650955 5.61289655,47.0875513 5.23055172,47.2601105 C4.848,47.4324619 4.47993103,47.5189494 4.12634483,47.5189494 C3.72062069,47.5189494 3.37137931,47.4291354 3.07841379,47.2497154 C3.02565517,47.2170747 2.9757931,47.1806917 2.92613793,47.1445167 L4.10793103,59.595392 C4.41558621,60.3702453 10.2074483,62.2740101 17.844,62.2740101 C25.484069,62.2740101 31.2782069,60.3683742 31.5804828,59.5941446 L33.278069,44.7910584 C33.1375862,44.9205817 33.0008276,45.0471945 32.870069,45.169857 C32.3830345,45.624956 31.9235172,46.0164367 31.4917241,46.3440914 C31.0601379,46.671746 30.6382759,46.9255951 30.2267586,47.1045993 C29.8150345,47.2842272 29.3745517,47.3738333 28.9051034,47.3738333 C28.4646207,47.3738333 28.1238621,47.2771586 27.8834483,47.084017 C27.6430345,46.8910833 27.5226207,46.6255916 27.5226207,46.2873339 L27.5226207,46.2097862 C27.5226207,46.1856695 27.5255172,46.1561473 27.5315172,46.1216355 C27.5544828,45.9149802 27.6446897,45.6765159 27.8011034,45.4076977 C27.9575172,45.1384637 28.1457931,44.8592505 28.365931,44.569642 C28.5862759,44.2798257 28.8208966,43.986475 29.0702069,43.6897979 C29.3195172,43.3933287 29.55,43.1122443 29.7616552,42.8463368 C29.9731034,42.5812609 30.1483448,42.3380147 30.2873793,42.1170142 C30.4268276,41.8962215 30.4963448,41.7170094 30.4963448,41.5789621 C30.4963448,41.4962168 30.4671724,41.4307275 30.4094483,41.3820782 C30.3513103,41.3342606 30.2555172,41.3097281 30.1224828,41.3097281 C29.8905517,41.3097281 29.6513793,41.3702278 29.4053793,41.4908113 C29.1587586,41.6113949 28.9150345,41.7739748 28.6746207,41.9773036 C28.4342069,42.1808403 28.1993793,42.4138992 27.9703448,42.6758566 C27.7417241,42.9380218 27.5271724,43.2105822 27.3271034,43.493122 C27.1270345,43.7762854 26.9447586,44.0609042 26.7794483,44.3471862 C26.6141379,44.6334681 26.4736552,44.8972966 26.3575862,45.1384637 C26.3228276,45.2145561 26.2735862,45.321626 26.2096552,45.4592576 C26.145931,45.5973049 26.0764138,45.7528161 26.0011034,45.9251675 C25.9255862,46.0977267 25.845931,46.2754835 25.761931,46.4578141 C25.677931,46.6409764 25.6011724,46.8135356 25.5316552,46.9754918 C25.4621379,47.1376559 25.3998621,47.2821482 25.3450345,47.4100084 C25.2895862,47.5374527 25.2504828,47.6256034 25.2273103,47.6740448 C25.1983448,47.7359998 25.1505517,47.853049 25.083931,48.0256082 C25.0173103,48.1981674 24.9403448,48.4000409 24.8536552,48.6310208 C24.7667586,48.8620006 24.6753103,49.1052468 24.5795172,49.3607592 C24.4843448,49.6156478 24.3941379,49.8574387 24.3101379,50.0850921 C24.225931,50.3125376 24.152069,50.5127479 24.0885517,50.6853071 C24.0248276,50.8574505 23.9838621,50.9749155 23.9664828,51.0370784 C23.9087586,51.2164984 23.8404828,51.3851075 23.7624828,51.544361 C23.684069,51.7027828 23.5944828,51.8424934 23.4928966,51.9634927 C23.3915172,52.0840763 23.2756552,52.1805431 23.1451034,52.2528933 C23.0145517,52.3256592 22.8682759,52.3616264 22.7062759,52.3616264 C22.4973103,52.3616264 22.3251724,52.3113139 22.1886207,52.2115206 C22.0526897,52.1115194 21.9844138,51.9198332 21.9844138,51.6372934 C21.9844138,51.4992461 22.0017931,51.3578723 22.0365517,51.213172 C22.0713103,51.0682638 22.1149655,50.924811 22.1671034,50.7836451 C22.2192414,50.6418554 22.2730345,50.5042239 22.328069,50.3697108 C22.3828966,50.2349899 22.4337931,50.1058823 22.479931,49.9815565 C22.7931724,49.2917355 23.112,48.6002512 23.4364138,47.9066879 C23.7608276,47.2135403 24.0724138,46.5272536 24.3711724,45.8476198 C24.4332414,45.7058301 24.4903448,45.5669512 24.5509655,45.4259931 C24.5327586,45.4438728 24.5149655,45.462584 24.4971724,45.4800478 C24.1202069,45.8459565 23.7451034,46.1682057 23.3712414,46.4476269 C22.9971724,46.7270481 22.6262069,46.9495039 22.2585517,47.1152024 C21.8902759,47.280485 21.5323448,47.3634382 21.1843448,47.3634382 C20.9468276,47.3634382 20.7484138,47.3255999 20.5891034,47.2497154 C20.4295862,47.173623 20.3023448,47.0700875 20.2065517,46.9393167 C20.1107586,46.808338 20.0424828,46.6530347 20.001931,46.4736147 C19.9882759,46.4122834 19.9797931,46.3482494 19.9708966,46.2844233 C19.8691034,46.36405 19.7664828,46.4415977 19.6630345,46.5151953 C19.3036552,46.7700839 18.950069,46.9754918 18.6022759,47.1305872 C18.2546897,47.2858905 17.9414483,47.3634382 17.6635862,47.3634382 C17.3851034,47.3634382 17.1591724,47.2702978 16.9849655,47.084017 C16.8111724,46.8979441 16.7244828,46.5804767 16.7244828,46.1322385 C16.7244828,45.8145632 16.7708276,45.445536 16.8633103,45.0249489 C16.7126897,45.2939749 16.5244138,45.5665354 16.2984828,45.8422143 C16.0721379,46.1183091 15.8143448,46.3700792 15.5246897,46.5979405 C15.2344138,46.825386 14.91,47.0100036 14.5508276,47.1513774 C14.1912414,47.2927513 13.8,47.3634382 13.3771034,47.3634382 C13.1857241,47.3634382 13.0017931,47.3393215 12.8248966,47.291088 C12.648,47.2426467 12.4930345,47.1599014 12.3597931,47.0426443 C12.2263448,46.9255951 12.1193793,46.7684207 12.038069,46.5719527 C11.9569655,46.3754847 11.9164138,46.1284963 11.9164138,45.8320271 C11.9164138,45.8251663 11.928,45.7199675 11.9511724,45.5162229 C11.9743448,45.3126862 12.0482069,44.9918924 12.1729655,44.5538414 C12.2975172,44.1159984 12.4903448,43.5484241 12.7508276,42.8515343 C13.011931,42.1548525 13.38,41.3097281 13.8552414,40.316577 C13.9768966,40.0542038 14.1175862,39.8662598 14.2766897,39.7525371 C14.4364138,39.6386064 14.6085517,39.5816411 14.793931,39.5816411 C14.8752414,39.5816411 14.9592414,39.5939073 15.0461379,39.6178161 C15.1334483,39.6421407 15.2143448,39.679979 15.2898621,39.7317468 C15.3649655,39.7835146 15.426,39.8492118 15.4725517,39.9284227 C15.5184828,40.0076336 15.542069,40.0989029 15.542069,40.2024384 C15.542069,40.2714621 15.5331724,40.3373673 15.5157931,40.3989065 C15.4866207,40.5167873 15.4243448,40.6698037 15.3291724,40.8594109 C15.2333793,41.0494339 15.1216552,41.2666922 14.994,41.5116016 C14.8667586,41.7565109 14.7318621,42.0203394 14.589931,42.3035029 C14.4477931,42.5860426 14.316,42.8791854 14.1943448,43.1829312 C14.0726897,43.486677 13.9682069,43.7952046 13.8813103,44.1091376 C13.7944138,44.4230706 13.7449655,44.7284797 13.7335862,45.0249489 C13.7335862,45.1490668 13.7623448,45.2627895 13.8204828,45.3663251 C13.8784138,45.4698606 13.9742069,45.5214205 14.1074483,45.5214205 C14.484,45.5214205 14.8433793,45.3970947 15.1855862,45.1490668 C15.5273793,44.9006231 15.8431034,44.5918876 16.1331724,44.2228604 C16.4230345,43.8538331 16.6851724,43.4569469 16.92,43.0326176 C17.1548276,42.6082882 17.3503448,42.2205497 17.5067586,41.8685705 C17.6170345,41.6342642 17.714069,41.3820782 17.798069,41.1132601 C17.882069,40.8440261 17.9735172,40.5959982 18.072,40.3681369 C18.1706897,40.1402756 18.2834483,39.9506683 18.4111034,39.7988994 C18.5383448,39.6473383 18.698069,39.5712459 18.8890345,39.5712459 C19.098,39.5712459 19.2628966,39.6506648 19.3849655,39.8092945 C19.5066207,39.9681321 19.5672414,40.1577394 19.5672414,40.3783241 C19.5672414,40.502442 19.5283448,40.6735459 19.449931,40.8908042 C19.3715172,41.1080625 19.2730345,41.3565062 19.1542759,41.6359274 C19.0353103,41.9153486 18.9064138,42.2136889 18.7675862,42.5307405 C18.6285517,42.8484158 18.4992414,43.1706649 18.3808966,43.4985275 C18.2615172,43.8261821 18.1634483,44.1469759 18.0850345,44.4609089 C18.0066207,44.7746341 17.9677241,45.0663215 17.9677241,45.3351397 C17.9677241,45.5835834 18.0951724,45.7079092 18.350069,45.7079092 C18.5298621,45.7079092 18.7528966,45.6457463 19.0195862,45.5214205 C19.2862759,45.3970947 19.566,45.2230801 19.8585517,44.9987531 C19.9315862,44.9428273 20.0052414,44.8844067 20.0782759,44.8230754 C20.16,44.4844019 20.2557931,44.1713005 20.3673103,43.8866817 C20.570069,43.3482138 20.775931,42.8139039 20.9846897,42.2827126 C21.1932414,41.7515213 21.3844138,41.265029 21.5586207,40.8234437 L24.1928276,34.1489363 C24.2971034,33.8799102 24.4377931,33.6900951 24.6142759,33.5796988 C24.7913793,33.4695103 24.9695172,33.4142082 25.1493103,33.4142082 C25.3286897,33.4142082 25.4923448,33.4728368 25.6402759,33.5900939 C25.7882069,33.7075589 25.8622759,33.8971661 25.8622759,34.1593314 C25.8622759,34.2834493 25.8374483,34.4146359 25.7882069,34.5524754 C25.7389655,34.6905227 25.6766897,34.8387574 25.6011724,34.9973871 C25.4565517,35.3219232 25.284,35.7183936 25.083931,36.187422 C24.8838621,36.6566583 24.6693103,37.1672673 24.4404828,37.719041 C24.2114483,38.2710226 23.9766207,38.8452498 23.7362069,39.4419305 C23.4957931,40.038819 23.2609655,40.619907 23.031931,41.1856102 C22.8033103,41.7515213 22.5885517,42.2874944 22.3884828,42.7947769 C22.1886207,43.3018515 22.0164828,43.7417736 21.8712414,44.1141273 C21.8075172,44.272757 21.7452414,44.4575825 21.6846207,44.66798 C21.6235862,44.8781696 21.5933793,45.0663215 21.5933793,45.2320199 C21.5933793,45.3351397 21.6107586,45.4178849 21.6455172,45.4800478 C21.6802759,45.5422107 21.7468966,45.5733961 21.8453793,45.5733961 C21.9670345,45.5733961 22.1191034,45.5303603 22.3017931,45.4438728 C22.4842759,45.3578011 22.6812414,45.2436625 22.8928966,45.1022887 C23.1047586,44.9611228 23.3248966,44.7989587 23.5535172,44.6160043 C23.7827586,44.4332579 24.0101379,44.2436506 24.236069,44.0469747 C24.4624138,43.8500909 24.6782069,43.6536228 24.8838621,43.4569469 C25.0895172,43.2604789 25.2738621,43.0793957 25.4362759,42.9136972 C25.4743448,42.8739878 25.5198621,42.845921 25.569931,42.8249228 C25.6677931,42.5311563 25.7571724,42.243419 25.836,41.9619188 C25.8823448,41.837593 25.9462759,41.6619152 26.0273793,41.4340539 C26.1082759,41.2061926 26.2011724,40.9820735 26.3054483,40.7612808 C26.4097241,40.5406961 26.5274483,40.3490098 26.6573793,40.1870537 C26.787931,40.0250975 26.9286207,39.9438075 27.0792414,39.9438075 C27.3111724,39.9438075 27.4793793,39.9974464 27.5836552,40.1041005 C27.687931,40.2113783 27.740069,40.3681369 27.740069,40.5752079 C27.740069,40.6165806 27.7342759,40.6820699 27.7226897,40.771676 C27.7108966,40.8614899 27.6968276,40.9565014 27.6794483,41.0565026 C27.662069,41.1562959 27.6430345,41.2513074 27.6227586,41.3411214 C27.6022759,41.4307275 27.5836552,41.4962168 27.5662759,41.5375894 C27.7804138,41.3028673 28.0123448,41.0702242 28.2616552,40.8392443 C28.5109655,40.6080566 28.7687586,40.3989065 29.0354483,40.2130415 C29.3023448,40.0265528 29.5746207,39.8751996 29.8531034,39.7573188 C30.1309655,39.6404775 30.4094483,39.5816411 30.6875172,39.5816411 C30.8786897,39.5816411 31.0686207,39.6092921 31.2568966,39.6645942 C31.4451724,39.7196884 31.6135862,39.8007705 31.7611034,39.9076325 C31.9090345,40.0149102 32.0294483,40.1492154 32.121931,40.3113795 C32.2146207,40.4733356 32.2609655,40.6612797 32.2609655,40.8752115 C32.2609655,41.1583749 32.1902069,41.4600417 32.048069,41.7808356 C31.9061379,42.1016294 31.728,42.4240864 31.5134483,42.7479988 C31.2988966,43.0725349 31.0669655,43.3879232 30.818069,43.6949955 C30.5687586,44.0020677 30.3355862,44.281281 30.1181379,44.5330512 C29.9006897,44.7852371 29.718,44.9987531 29.570069,45.1746388 C29.4227586,45.3509403 29.3453793,45.4698606 29.3397931,45.5320235 C29.3397931,45.6147688 29.366069,45.6819213 29.4182069,45.733897 C29.4703448,45.7854569 29.5572414,45.8114447 29.6788966,45.8114447 C29.7773793,45.8114447 29.9226207,45.7561426 30.1135862,45.6457463 C30.3047586,45.53535 30.5731034,45.3440795 30.9177931,45.0715191 C31.2624828,44.7989587 31.7004828,44.4332579 32.2307586,43.9744167 C32.5944828,43.6600678 33.0202759,43.2852193 33.500069,42.8588109 L35.7995172,21.4595965 C35.4291724,21.6650044 35.043931,21.793904 34.8167586,21.8693727 C33.8654483,22.184969 32.522069,22.4660534 30.8238621,22.7043099 Z M18,17.6271186 C8.05893062,17.6271186 0,18.744051 0,20.1219507 C0,21.4998505 8.05893062,22.6167828 18,22.6167828 C27.9410694,22.6167828 36,21.4998505 36,20.1219507 C36,18.744051 27.9410694,17.6271186 18,17.6271186 Z M25.1871724,20.8510654 C25.1871724,21.1743541 24.2294483,21.4365193 23.0478621,21.4365193 C21.8664828,21.4365193 20.9087586,21.1743541 20.9087586,20.8510654 C20.9087586,20.5275689 21.8664828,20.2654036 23.0478621,20.2654036 C24.2294483,20.2654036 25.1871724,20.5275689 25.1871724,20.8510654 Z" id="Cup"></path>
                <path d="M21.0729631,20.5884284 C21.062177,20.6053324 21.0566038,20.6225932 21.0566038,20.6401333 C21.0566038,20.8483954 21.8407506,21.0169492 22.8077318,21.0169492 C23.7749233,21.0169492 24.5588598,20.8483954 24.5588598,20.6401333 L26.8460774,11.5241683 L35.9421482,2.08417457 C35.9451181,2.08129449 35.9479909,2.07831399 35.9507647,2.07523213 C36.1432773,1.86117923 35.7525715,1.19875271 35.1043406,0.630633565 C34.4561098,0.0625144155 33.7561215,-0.129822974 33.5385717,0.0865048856 C33.5369456,0.0881227584 33.5353596,0.0897634863 33.5338132,0.0914268854 L23.8287848,10.1298256 L21.0729631,20.5884284 Z" id="Straw"></path>
            </g>
        </g>
    </g>
</svg>