<?xml version="1.0" encoding="UTF-8"?>
<svg width="72px" height="73px" viewBox="0 0 72 73" version="1.1" xmlns="http://www.w3.org/2000/svg" xmlns:xlink="http://www.w3.org/1999/xlink">
    <title>Edinburgh-JS-01</title>
    <g id="Homepage" stroke="none" stroke-width="1" fill="none" fill-rule="evenodd">
        <g id="3_SKILLS" transform="translate(-941.000000, -371.000000)" fill="#FFFFFF" fill-rule="nonzero">
            <g id="Edinburgh-JS-01" transform="translate(941.000000, 371.000000)">
                <path d="M72,0 L72,73 L0,73 L0,0 L72,0 Z M38.6666667,33.7962963 L31.9805068,33.7962963 L31.9805068,57.1213468 C31.9805068,60.5650452 30.5964912,61.4459913 28.3937622,61.4459913 C26.1130604,61.4459913 25.1578947,59.8442711 24.1052632,57.9222069 L24.1052632,57.9222069 L18.6666667,61.3058408 C20.245614,64.7495392 23.3450292,67.5925926 28.6861598,67.5925926 C34.6120858,67.5925926 38.6666667,64.3491092 38.6666667,57.2414758 L38.6666667,57.2414758 L38.6666667,33.7962963 Z M54.4701284,32.4444444 C48.4902289,32.4444444 44.6599665,36.4025454 44.6599665,41.5925043 C44.6599665,47.2267399 47.8844221,49.9125941 52.7113345,52.0330053 L52.7113345,52.0330053 L54.3919598,52.7801978 C57.4600782,54.1736109 59.2774986,55.001581 59.2774986,57.3845194 C59.2774986,59.3635698 57.4991625,60.7973717 54.7241764,60.7973717 C51.4215522,60.7973717 49.5650475,59.0202652 48.118928,56.596938 L48.118928,56.596938 L42.6666667,59.8684296 C44.6208822,63.8871138 48.6465662,66.9566615 54.9000558,66.9162727 C61.2512563,66.9162727 66,63.5034203 66,57.263353 C66,51.4675623 62.7950865,48.9028744 57.0887772,46.3785754 L57.0887772,46.3785754 L55.4081519,45.6313828 C52.5354551,44.3591361 51.2847571,43.5109716 51.2847571,41.4309492 C51.2847571,39.7548146 52.5354551,38.4623735 54.4896706,38.4623735 C56.4048018,38.4623735 57.6359576,39.3105379 58.7889447,41.4309492 L58.7889447,41.4309492 L64.0067002,37.977708 C61.7984366,33.9792183 58.7303183,32.4444444 54.4701284,32.4444444 Z" id="Combined-Shape"></path>
            </g>
        </g>
    </g>
</svg>