<?xml version="1.0" encoding="UTF-8"?>
<svg width="82px" height="62px" viewBox="0 0 82 62" version="1.1" xmlns="http://www.w3.org/2000/svg" xmlns:xlink="http://www.w3.org/1999/xlink">
    <title>Sass_Logo_Color</title>
    <g id="Homepage" stroke="none" stroke-width="1" fill="none" fill-rule="evenodd">
        <g id="3_SKILLS" transform="translate(-809.000000, -376.000000)" fill="#FFFFFF" fill-rule="nonzero">
            <g id="Sass_Logo_Color" transform="translate(809.000000, 376.000000)">
                <path d="M70.6084222,35.6413777 C67.747697,35.6564783 65.2614123,36.3511055 63.1795233,37.3779456 C62.4156647,35.852786 61.6518061,34.4937328 61.5170076,33.4970938 C61.3672314,32.3343483 61.1874999,31.6246205 61.3672314,30.2353661 C61.5469628,28.8461117 62.3557542,26.8679343 62.3407766,26.7169284 C62.325799,26.5659225 62.1610452,25.8561947 60.5135071,25.8410941 C58.865969,25.8259935 57.4430952,26.1582065 57.2783414,26.5961237 C57.1135876,27.0340408 56.7990576,28.0306798 56.589371,29.05752 C56.3047962,30.5675791 53.2942948,35.9584901 51.5718687,38.7823006 C51.0176968,37.6799575 50.538413,36.7135196 50.4335696,35.9433895 C50.2837934,34.780644 50.104062,34.0709162 50.2837934,32.6816618 C50.4635249,31.2924075 51.2723163,29.3142301 51.2573387,29.1632241 C51.242361,29.0122182 51.0776072,28.3024905 49.4300692,28.2873899 C47.7825311,28.2722893 46.3596573,28.6045023 46.1949035,29.0424194 C46.0301497,29.4803366 45.8504183,30.5071767 45.505933,31.5038158 C45.1614478,32.5004548 41.1624236,41.500407 40.1139903,43.825898 C39.574796,45.0188447 39.1104898,45.9701819 38.7809822,46.6195073 C38.7809822,46.6195073 38.7809822,46.6195073 38.7809822,46.6195073 C38.7809822,46.6195073 38.7660046,46.6648091 38.7210717,46.7403121 C38.4364969,47.2990339 38.2717431,47.6010457 38.2717431,47.6010457 C38.2717431,47.6010457 38.2717431,47.6010457 38.2717431,47.6161463 C38.0470789,48.0238623 37.807437,48.4013771 37.687616,48.4013771 C37.5977503,48.4013771 37.4329965,47.3141345 37.7175712,45.8342766 C38.316676,42.7084543 39.7395498,37.846064 39.7245722,37.6799575 C39.7245722,37.5893539 39.9941693,36.7437208 38.7959598,36.3058037 C37.6277055,35.8678865 37.2083322,36.5927149 37.1034889,36.5927149 C36.9986455,36.5927149 36.9237574,36.849425 36.9237574,36.849425 C36.9237574,36.849425 38.2268103,31.383011 34.4374727,31.383011 C32.0710089,31.383011 28.805888,33.9954133 27.1883052,36.3511055 C26.1698271,36.9098273 23.9980724,38.102774 21.6765415,39.3863242 C20.792862,39.8846438 19.8792272,40.3829633 19.0255029,40.8510816 C18.9655925,40.7906792 18.905682,40.7151763 18.8457715,40.6547739 C14.2626202,35.7168806 5.78528789,32.2286441 6.14475074,25.5994847 C6.27954931,23.1833901 7.10331835,16.8411419 22.4254224,9.13984049 C35.0365775,2.87309523 45.0715821,4.6096632 46.8089859,8.4603139 C49.2952706,13.956929 41.4320207,24.1649285 28.4014923,25.6447864 C23.4289229,26.2035083 20.8228172,24.2706327 20.163802,23.5458043 C19.4748315,22.7907747 19.3699882,22.745473 19.1153687,22.8964789 C18.6959953,23.1229878 18.9655925,23.8025143 19.1153687,24.1951297 C19.5047867,25.2219699 21.107392,27.0340408 23.818341,27.9249757 C26.21476,28.7102064 32.0410537,29.1481236 39.0955122,26.399816 C46.9887173,23.3192954 53.1594963,14.7572603 51.3472044,7.58447962 C49.5349125,0.305994766 37.5528174,-2.0949992 26.21476,1.96705977 C19.4748315,4.38315433 12.1657535,8.18850326 6.9086093,13.1414971 C0.662942252,19.0307276 -0.325580591,24.1498279 0.0788151176,26.2941119 C1.53164414,33.9048097 11.9410892,38.8578036 16.1048673,42.5272472 C15.8951806,42.6480519 15.7004716,42.753756 15.5357178,42.8443596 C13.4538287,43.8863004 5.51569075,48.0691641 3.53864507,52.4936372 C1.29200224,57.5070334 3.89810792,61.1009741 5.62053408,61.584193 C10.967544,63.0791515 16.4643301,60.3912463 19.414921,55.9516726 C22.3655119,51.5120988 22.0060491,45.7436731 20.6430858,43.1010696 C20.6281082,43.0708684 20.6131305,43.0406673 20.5831753,43.0104661 C21.1223696,42.6933537 21.6765415,42.3611407 22.2157357,42.0440283 C23.2791467,41.4098034 24.32758,40.8208804 25.2262371,40.3376615 C24.7169981,41.7420164 24.3425576,43.418182 24.1628262,45.8342766 C23.9381619,48.6731877 25.0914386,52.3577319 26.6041781,53.8073886 C27.2781709,54.4416135 28.0719847,54.4567141 28.5812238,54.4567141 C30.3485828,54.4567141 31.1423966,52.9768561 32.0260761,51.2251876 C33.1044646,49.0809037 34.0780099,46.5893062 34.0780099,46.5893062 C34.0780099,46.5893062 32.8648227,53.3241697 36.1598989,53.3241697 C37.3581084,53.3241697 38.5712955,51.7537083 39.1104898,50.9533769 C39.1104898,50.9684775 39.1104898,50.9684775 39.1104898,50.9684775 C39.1104898,50.9684775 39.140445,50.9231758 39.2003555,50.8174716 C39.3201765,50.6211639 39.3950645,50.5003592 39.3950645,50.5003592 C39.3950645,50.5003592 39.3950645,50.4852586 39.3950645,50.470158 C39.8743484,49.6245249 40.9527369,47.7067499 42.5553421,44.5205252 C44.6222535,40.4131644 46.6142768,35.2789635 46.6142768,35.2789635 C46.6142768,35.2789635 46.7940082,36.5323126 47.4080906,38.6161941 C47.7675535,39.839342 48.5164344,41.1832946 49.1155392,42.4819454 C48.6362554,43.161472 48.336703,43.5389868 48.336703,43.5389868 C48.336703,43.5389868 48.336703,43.5389868 48.3516806,43.5540874 C47.9622625,44.0675075 47.5428892,44.6262293 47.078583,45.1698506 C45.4460226,47.1329274 43.4989321,49.3829155 43.229335,50.0322409 C42.914805,50.802371 42.9896931,51.3610929 43.5887978,51.8141106 C44.0231488,52.1463236 44.8019849,52.1916254 45.5957987,52.1463236 C47.0636054,52.0406195 48.0970611,51.6782053 48.6063001,51.4516964 C49.4001139,51.1647852 50.3287263,50.7268681 51.1974282,50.0775427 C52.8000334,48.884596 53.7735786,47.1782292 53.6837129,44.9282411 C53.6387801,43.6899927 53.2343843,42.4517442 52.7401229,41.2889987 C52.8898991,41.0775904 53.0246977,40.8661822 53.1744739,40.6547739 C55.7056915,36.9249279 57.6677595,32.8326678 57.6677595,32.8326678 C57.6677595,32.8326678 57.8474909,34.0860168 58.4615733,36.1698984 C58.7611257,37.2269397 59.3752081,38.3745847 59.9144023,39.4920284 C57.532961,41.4400046 56.0651543,43.7050933 55.5409376,45.1849512 C54.5973477,47.9332587 55.331251,49.1715072 56.7241695,49.4584184 C57.3532295,49.5943238 58.2518867,49.2923119 58.9109019,49.0054007 C59.7496485,48.7335901 60.7381714,48.2654718 61.6817614,47.5708446 C63.2843666,46.3778979 64.8270613,44.7168329 64.7371956,42.4668448 C64.6922628,41.4400046 64.4226656,40.428265 64.0482251,39.4467266 C66.0702037,38.6010935 68.6763094,38.1329752 72.0013407,38.5255906 C79.1306873,39.3712237 80.5385835,43.8560992 80.2689863,45.7436731 C79.9993892,47.6312469 78.5016273,48.6580871 78.0073659,48.9751995 C77.5131045,49.2923119 77.3483507,49.3980161 77.3932835,49.6245249 C77.453194,49.9567379 77.6928359,49.9416373 78.1122092,49.881235 C78.6963364,49.7755308 81.8566139,48.3560753 81.9914125,44.8829394 C82.2160768,40.4433656 78.0223435,35.5960759 70.6084222,35.6413777 Z M15.6106058,54.3359093 C13.2441421,56.933211 9.94906593,57.9147494 8.52619214,57.0842169 C6.99847502,56.193282 7.59757977,52.3577319 10.5032378,49.6094243 C12.2705968,47.9332587 14.5471949,46.3778979 16.0599344,45.4265606 C16.4044196,45.2151524 16.9136587,44.9131406 17.5277411,44.5356258 C17.6325844,44.4752234 17.6924949,44.4450222 17.6924949,44.4450222 L17.6924949,44.4450222 C17.8123158,44.3695193 17.9321368,44.2940163 18.0519577,44.2185134 C19.1153687,48.144667 18.0968906,51.6027024 15.6106058,54.3359093 Z M32.8348675,42.5272472 C32.0110985,44.5507264 30.2886723,49.7302291 29.240239,49.4433178 C28.3415819,49.2017084 27.78741,45.2755547 29.0605076,41.3947028 C29.7045452,39.4467266 31.0675085,37.1212356 31.8613223,36.2152001 C33.1493975,34.7655434 34.5722713,34.2823245 34.9167565,34.8712475 C35.3511075,35.6413777 33.3441065,41.2587975 32.8348675,42.5272472 Z M47.0486278,49.3829155 C46.7041425,49.5641226 46.3746349,49.6849273 46.2248587,49.5943238 C46.1200154,49.5339214 46.3746349,49.2923119 46.3746349,49.2923119 C46.3746349,49.2923119 48.1569716,47.3594363 48.8609196,46.483602 C49.2653154,45.9701819 49.7445992,45.3661583 50.2538382,44.6866317 C50.2538382,44.747034 50.2538382,44.822537 50.2538382,44.8829394 C50.2538382,47.1933298 48.0371506,48.7486907 47.0486278,49.3829155 Z M58.0122448,46.8611168 C57.7576252,46.6799097 57.8025581,46.0758861 58.6562824,44.1883122 C58.98579,43.4483832 59.7646262,42.2101348 61.0976342,41.0171881 C61.2474104,41.500407 61.3522538,41.9685253 61.3372761,42.4064424 C61.3222985,45.3208565 59.2553871,46.4080991 58.0122448,46.8611168 Z" id="Shape"></path>
            </g>
        </g>
    </g>
</svg>