<?xml version="1.0" encoding="UTF-8"?>
<svg width="64px" height="64px" viewBox="0 0 64 64" version="1.1" xmlns="http://www.w3.org/2000/svg" xmlns:xlink="http://www.w3.org/1999/xlink">
    <title>Octicons-mark-github</title>
    <g id="Homepage" stroke="none" stroke-width="1" fill="none" fill-rule="evenodd">
        <g id="3_SKILLS" transform="translate(-945.000000, -498.000000)" fill="#FFFFFF">
            <g id="Octicons-mark-github" transform="translate(945.000000, 498.000000)">
                <path d="M32,0 C14.32,0 0,14.6822078 0,32.809403 C0,47.3275638 9.16,59.5900782 21.88,63.937324 C23.48,64.2244063 24.08,63.2401242 24.08,62.3788774 C24.08,61.5996541 24.04,59.0159136 24.04,56.2681261 C16,57.785561 13.92,54.2585502 13.28,52.4130213 C12.92,51.4697509 11.36,48.5579164 10,47.7786931 C8.88,47.1635168 7.28,45.6460819 9.96,45.6050701 C12.48,45.5640584 14.28,47.9837519 14.88,48.9680339 C17.76,53.9304561 22.36,52.5360565 24.2,51.6748097 C24.48,49.5421985 25.32,48.1067871 26.24,47.286552 C19.12,46.466317 11.68,43.636506 11.68,31.0869093 C11.68,27.5188867 12.92,24.5660405 14.96,22.2693823 C14.64,21.4491472 13.52,18.0861834 15.28,13.5748905 C15.28,13.5748905 17.96,12.7136437 24.08,16.9378543 C26.64,16.1996427 29.36,15.8305369 32.08,15.8305369 C34.8,15.8305369 37.52,16.1996427 40.08,16.9378543 C46.2,12.6726319 48.88,13.5748905 48.88,13.5748905 C50.64,18.0861834 49.52,21.4491472 49.2,22.2693823 C51.24,24.5660405 52.48,27.477875 52.48,31.0869093 C52.48,43.6775177 45,46.466317 37.88,47.286552 C39.04,48.3118459 40.04,50.2804101 40.04,53.3562916 C40.04,57.7445492 40,61.2715601 40,62.3788774 C40,63.2401242 40.6,64.2654181 42.2,63.937324 C54.84,59.5900782 64,47.286552 64,32.809403 C64,14.6822078 49.68,0 32,0 Z" id="Path"></path>
            </g>
        </g>
    </g>
</svg>