<?xml version="1.0" encoding="UTF-8"?>
<svg width="101px" height="49px" viewBox="0 0 101 49" version="1.1" xmlns="http://www.w3.org/2000/svg" xmlns:xlink="http://www.w3.org/1999/xlink">
    <title>Php_logo</title>
    <g id="Homepage" stroke="none" stroke-width="1" fill="none" fill-rule="evenodd">
        <g id="3_SKILLS" transform="translate(-1180.000000, -382.000000)" fill="#FFFFFF" fill-rule="nonzero">
            <g id="Php_logo" transform="translate(1180.000000, 382.000000)">
                <path d="M16.6123203,31.681151 C19.6462487,31.681151 21.9111915,31.1123742 23.3442886,29.9911886 C24.7620485,28.8815046 25.7412526,26.9589187 26.2544937,24.2771175 C26.7330319,21.7704245 26.550718,20.0201325 25.7128391,19.0755826 C24.8560958,18.1108399 23.0038048,17.6215673 20.20751,17.6215673 L15.3590198,17.6215673 L12.671111,31.681151 L16.6123203,31.681151 Z M0.75418567,49 C0.529127175,49 0.315381286,48.8977455 0.172299969,48.7208494 C0.0289585044,48.5442136 -0.0291233286,48.31159 0.0138737549,48.0868919 L7.13737222,10.8287447 C7.20627697,10.4685661 7.51683229,10.2083333 7.87793281,10.2083333 L23.2308756,10.2083333 C28.055987,10.2083333 31.6474084,11.5401617 33.9048107,14.1672575 C36.1742832,16.8081599 36.8751138,20.4996916 35.9876921,25.1390965 C35.6265916,27.0292184 35.0054733,28.784618 34.1416907,30.3562259 C33.2769056,31.9296218 32.1339958,33.3854252 30.7441483,34.6840199 C29.0804569,36.2668729 27.1974838,37.4146492 25.1525763,38.0900184 C23.1400993,38.7564437 20.5555419,39.0943849 17.4708273,39.0943849 L11.2541086,39.0943849 L9.47876407,48.3793321 C9.40985932,48.7397672 9.09955268,49 8.73845216,49 L0.75418567,49 L0.75418567,49 Z" id="path3486"></path>
                <path d="M54.4050972,38.7916667 C54.1824546,38.7916667 53.9714918,38.689416 53.8301058,38.5125199 C53.6882219,38.3358803 53.6308227,38.1035132 53.6733101,37.8785586 L56.7870584,21.3933174 C57.0832564,19.8255459 57.0102026,18.7002674 56.581564,18.2247974 C56.3191644,17.934149 55.5309776,17.4466643 53.2004494,17.4466643 L47.5593751,17.4466643 L43.6445157,38.1709988 C43.5764286,38.5314339 43.2695541,38.7916667 42.9127287,38.7916667 L35.0854915,38.7916667 C34.8628528,38.7916667 34.6518938,38.689416 34.510255,38.5125199 C34.3686239,38.3358803 34.3112208,38.1032567 34.3537083,37.8785586 L41.3927549,0.620411335 C41.4608381,0.260232767 41.7677165,0 42.1245419,0 L49.9517714,0 C50.174414,0 50.3853806,0.102254539 50.5270118,0.278894115 C50.6686506,0.455786389 50.7260459,0.688153483 50.6835585,0.913108109 L48.984923,9.9056151 L55.0533914,9.9056151 C59.6764294,9.9056151 62.8112969,10.7440816 64.6371572,12.4690618 C66.4982942,14.228807 67.0790029,17.0425163 66.3633722,20.8329792 L63.0883555,38.1709988 C63.020276,38.5314339 62.7136428,38.7916667 62.3565723,38.7916667 L54.4050972,38.7916667 Z" id="path3494"></path>
                <path d="M80.5208455,31.681151 C83.6671271,31.681151 86.0159462,31.1123742 87.5021202,29.9911886 C88.9723844,28.8817611 89.9878532,26.9591752 90.5203596,24.2771175 C91.0166183,21.7704245 90.8275583,20.0201325 89.9583873,19.0755826 C89.0699138,18.1108399 87.1490301,17.6215673 84.2491814,17.6215673 L79.2211258,17.6215673 L76.4336769,31.681151 L80.5208455,31.681151 L80.5208455,31.681151 Z M64.075681,49 C63.8422884,49 63.6206257,48.8977455 63.4722455,48.7208494 C63.3236018,48.5442136 63.2630996,48.31159 63.3076882,48.0868919 L70.6950013,10.8287447 C70.7667174,10.4685661 71.0885153,10.2083333 71.4632539,10.2083333 L87.3845088,10.2083333 C92.38857,10.2083333 96.1127374,11.5401617 98.4540028,14.1672575 C100.807518,16.8079034 101.534043,20.4994389 100.614018,25.1390965 C100.239019,27.0292184 99.5951601,28.784618 98.6993926,30.3562259 C97.8025745,31.9296218 96.6173407,33.3854252 95.1760226,34.6840199 C93.4507173,36.2668729 91.4980141,37.4146492 89.3773684,38.0900184 C87.2903685,38.7564437 84.6100965,39.0943849 81.411134,39.0943849 L74.9639323,39.0943849 L73.1236213,48.3793321 C73.051909,48.7397672 72.7301073,49 72.3553725,49 L64.075681,49 L64.075681,49 Z" id="path3502"></path>
            </g>
        </g>
    </g>
</svg>