<?xml version="1.0" encoding="UTF-8"?>
<svg width="73px" height="73px" viewBox="0 0 73 73" version="1.1" xmlns="http://www.w3.org/2000/svg" xmlns:xlink="http://www.w3.org/1999/xlink">
    <title>Wordpress-Logo</title>
    <g id="Homepage" stroke="none" stroke-width="1" fill="none" fill-rule="evenodd">
        <g id="3_SKILLS" transform="translate(-818.000000, -489.000000)" fill="#FFFFFF" fill-rule="nonzero">
            <g id="Wordpress-Logo" transform="translate(818.000000, 489.000000)">
                <path d="M5,36.7669103 C5,49.1840259 12.3467031,59.9148444 23,65 L7.76511699,24 C5.99301124,27.9014646 5,32.218982 5,36.7669103 Z" id="Path"></path>
                <path d="M56.9934886,34.9968175 C56.9934886,31.0924221 55.6124762,28.3885006 54.4279903,26.2839142 C52.8510435,23.6815851 51.3729518,21.4778109 51.3729518,18.8754818 C51.3729518,15.9713811 53.5418456,13.2680607 56.5968841,13.2680607 C56.7348077,13.2680607 56.865628,13.2854937 57,13.2933085 C51.4652955,8.14395502 44.0914117,5 35.9923929,5 C25.1242459,5 15.562526,10.6627259 10,19.2397718 C10.7298707,19.2620139 11.4177131,19.2776435 12.0019648,19.2776435 C15.2558974,19.2776435 20.2927745,18.8766841 20.2927745,18.8766841 C21.9697603,18.7762939 22.1674706,21.2776317 20.4922606,21.4790132 C20.4922606,21.4790132 18.8069875,21.6803946 16.9316994,21.7801836 L28.2603811,56 L35.0683636,35.2649253 L30.2215015,21.7789814 C28.5462915,21.6791924 26.9592816,21.4778109 26.9592816,21.4778109 C25.2828877,21.3780219 25.4794141,18.7750916 27.155808,18.8754818 C27.155808,18.8754818 32.293316,19.2764413 35.3501304,19.2764413 C38.6034711,19.2764413 43.6409401,18.8754818 43.6409401,18.8754818 C45.3191098,18.7750916 45.5162282,21.2764295 43.8404262,21.4778109 C43.8404262,21.4778109 42.1516014,21.6791924 40.279865,21.7789814 L51.5221224,55.739707 L54.6251086,45.2095616 C55.9700122,40.839885 56.9934886,37.7013402 56.9934886,34.9968175 Z" id="Path"></path>
                <path d="M37.2758685,39 L28,66.7054003 C30.7695833,67.5422644 33.6985881,68 36.7334819,68 C40.3337049,68 43.7862716,67.3602585 47,66.1986864 C46.9170537,66.0626355 46.8417549,65.9181193 46.7799864,65.7609049 L37.2758685,39 Z" id="Path"></path>
                <path d="M64.0583169,22 C64.196686,22.995286 64.2750544,24.0637024 64.2750544,25.2129783 C64.2750544,28.3837432 63.6652507,31.9481038 61.8284926,36.4048923 L52,64 C61.5658362,58.5830042 68,48.5189621 68,36.9917187 C68.0006121,31.5592644 66.5716143,26.450843 64.0583169,22 Z" id="Path"></path>
                <path d="M36.4991063,0 C16.3740155,0 0,16.3733585 0,36.4991063 C0,56.6272373 16.3740155,73 36.4991063,73 C56.6236013,73 73,56.6272373 73,36.4991063 C73,16.3733585 56.6236013,0 36.4991063,0 Z M36.4991063,71.3269753 C17.2968897,71.3269753 1.67356583,55.7031415 1.67356583,36.4991063 C1.67356583,17.2962627 17.2962939,1.67362046 36.4991063,1.67362046 C55.7007272,1.67362046 71.3228595,17.2962627 71.3228595,36.4991063 C71.3228595,55.7031415 55.7007272,71.3269753 36.4991063,71.3269753 Z" id="Shape"></path>
            </g>
        </g>
    </g>
</svg>